<?xml version="1.0" encoding="utf-8"?>
<!-- Generator: Adobe Illustrator 20.1.0, SVG Export Plug-In . SVG Version: 6.00 Build 0)  -->
<svg version="1.1" id="Layer_1" xmlns="http://www.w3.org/2000/svg" xmlns:xlink="http://www.w3.org/1999/xlink" x="0px" y="0px"
	 viewBox="0 0 92 63" style="enable-background:new 0 0 92 63;" xml:space="preserve">
<style type="text/css">
	.st0{fill:#FFFFFF;}
	.st1{fill:#F7931E;}
</style>
<g>
	<g>
		<g>
			<path class="st0" d="M85.8,51.4H0.7V1.1h85.1V51.4z M1.9,50.2h82.7v-48H1.9V50.2z"/>
		</g>
		<g>
			<g>
				<path class="st0" d="M13.8,42h-1.2v2.2h-1.6v-7.4h3c1.8,0,2.8,1,2.8,2.5v0C16.8,41.1,15.4,42,13.8,42z M15.1,39.4
					c0-0.7-0.5-1.1-1.3-1.1h-1.3v2.3h1.3C14.7,40.6,15.1,40.1,15.1,39.4L15.1,39.4z"/>
				<path class="st0" d="M25.1,44.2l-0.7-1.7h-3.1l-0.7,1.7H19l3.2-7.4h1.5l3.2,7.4H25.1z M22.9,38.8l-1,2.4h2L22.9,38.8z"/>
				<path class="st0" d="M32.9,41.3v2.9h-1.6v-2.9l-2.8-4.5h1.9l1.8,3l1.8-3h1.8L32.9,41.3z"/>
				<path class="st0" d="M44.7,44.2v-4.8l-2.1,3.1h0l-2.1-3.1v4.8H39v-7.4h1.7l1.9,3.1l1.9-3.1h1.7v7.4H44.7z"/>
				<path class="st0" d="M50.5,44.2v-7.4H56v1.4h-3.9v1.5h3.5v1.4h-3.5v1.5h4v1.4H50.5z"/>
				<path class="st0" d="M65.1,44.2l-3.6-4.7v4.7h-1.6v-7.4h1.5l3.5,4.5v-4.5h1.6v7.4H65.1z"/>
				<path class="st0" d="M73.7,38.4v5.9h-1.6v-5.9h-2.2v-1.5h6.1v1.5H73.7z"/>
			</g>
		</g>
		<g>
			<path class="st0" d="M11,31.3V29h2.2c1,0,1.3-0.3,1.3-1.2V13.7c0-0.8-0.3-1.1-1.3-1.1H11v-2.4h13.9c4.6,0,6.8,1.8,6.8,5.3
				c0,3.3-2.8,4.9-6,5.2v0.1c3.4,0.4,4.1,1.9,4.1,4.4c0,3.4,0.8,3.9,1.3,3.9c0.8,0,1.1-0.7,1.1-2.6v-1h2.1v1c0,4.1-1.8,5.6-4.4,5.6
				c-3.2,0-4.1-1.7-4.1-4.3c0-5.1-1.1-6.2-4.9-6.2H19v6.4c0,0.8,0.3,1.2,1.3,1.2h2.3v2.4H11z M19,19h3.8c3.4,0,4.4-1.1,4.4-3.5
				c0-2-1.3-3.1-4.1-3.1H19V19z"/>
		</g>
		<g>
			<path class="st0" d="M52.8,25.8v1c0,3.6-1.4,5.1-4.1,5.1c-1.6,0-3-0.7-3.2-2.4c-1.2,1.8-3.2,2.4-5.2,2.4c-2.5,0-4.4-1.2-4.4-4.1
				c0-6.2,9.6-3.2,9.6-7.7c0-2-1.7-2.4-3.4-2.4c-0.9,0-2.4,0.3-3,1.1c1.2-0.2,2.1,0.4,2.1,1.7c0,1.4-1,1.9-2.2,1.9
				c-1.4,0-2.3-1.1-2.3-2.4c0-3.3,3.9-4,6.4-4c4.3,0,6.2,1.9,6.2,4.6v7.8c0,0.7,0.3,1.1,0.8,1.1c0.5,0,0.9-0.4,0.9-2.4v-1.2H52.8z
				 M45.3,23.4L41.9,25C41,25.4,40,25.9,40,27.4c0,1.3,0.6,2,1.9,2c2.2,0,3.4-1.9,3.4-3.9V23.4z"/>
		</g>
		<g>
			<path class="st0" d="M53.7,16.4h3v-0.8c0-4.1,2.2-6,5.5-6c2,0,4.5,1.2,4.5,3.5c0,1.3-0.7,2.2-2,2.2c-1.2,0-2.1-0.8-2.1-1.9
				c0-1,0.7-1.6,1.6-1.8c0,0-0.1-0.1-0.1-0.1c-0.4-0.3-1-0.4-1.6-0.4c-1.7,0-2.1,1.1-2.1,2.6v2.7h3.3v2.1h-3.3v9.5
				c0,0.9,0.4,1.3,1.3,1.3h1.9v2.1h-10v-2.1h1.7c0.9,0,1.3-0.4,1.3-1.3v-9.5h-3V16.4z"/>
		</g>
		<g>
			<path class="st0" d="M66.7,31.3v-2.1h1.5c0.9,0,1.3-0.4,1.3-1.3v-8.2c0-0.9-0.4-1.3-1.3-1.3h-1.5v-2.1h6.5v11.6
				c0,0.9,0.4,1.3,1.3,1.3H76v2.1H66.7z M70.9,9.8c1.2,0,2.3,1,2.3,2.3c0,1.3-1.1,2.3-2.3,2.3c-1.2,0-2.3-1-2.3-2.3
				C68.6,10.8,69.6,9.8,70.9,9.8"/>
		</g>
	</g>
	<g>
		<rect x="59.6" y="48.5" class="st1" width="31.6" height="13.4"/>
		<g>
			<path class="st0" d="M66.2,52.3h1.5c0.3,0,0.8,0,1.2,0.2c0.4,0.3,0.5,0.7,0.5,0.9c0,0.7-0.4,0.9-0.6,1.1c-0.1,0-0.2,0.1-0.3,0.1
				c-0.1,0-0.1,0-0.1,0.1s0,0.1,0.2,0.1l0.2,0.1c0.5,0.2,0.9,0.7,0.9,1.3c0,0.7-0.4,1-0.5,1.1c-0.4,0.3-1.1,0.3-1.4,0.3h-1.6V52.3z
				 M67.7,54.5c0.3,0,0.6,0,0.8-0.2c0.1-0.1,0.3-0.3,0.3-0.6c0-0.7-0.8-0.7-1.3-0.7h-0.5v1.6H67.7z M66.9,57h1c0.3,0,1.1,0,1.1-0.9
				c0-0.6-0.3-0.9-0.9-1c0,0-0.4-0.1-1.2,0V57z"/>
			<path class="st0" d="M71.8,52.3H75V53h-2.5v1.5h1.9v0.7h-1.8v1.8h2.6v0.7h-3.4V52.3z"/>
			<path class="st0" d="M80.6,52.3V53h-1.5v4.6h-0.8V53h-1.5v-0.7H80.6z"/>
			<path class="st0" d="M84.7,56.5h-2.1l-0.3,1.1h-0.8l1.7-5.3H84l1.8,5.3H85L84.7,56.5z M84.5,55.9l-0.8-2.7c0,0,0,0,0,0s0,0,0,0
				l-0.8,2.7H84.5z"/>
		</g>
	</g>
</g>
</svg>
